<svg version="1.0" xmlns="http://www.w3.org/2000/svg"
    width="500pt" height="500pt" viewBox="50 60 400 400"
    preserveAspectRatio="xMidYMid meet">
    <g transform="translate(0.000000,512.000000) scale(0.100000,-0.100000)"
    fill="#3E3939" stroke="#3E3939">
    <path d="M2252 4133 c-5 -10 -29 -71 -53 -135 l-43 -116 -111 -36 c-60 -19
    -154 -58 -208 -86 l-98 -50 -121 55 c-67 30 -129 55 -138 55 -8 0 -84 -69
    -167 -152 l-152 -153 59 -134 60 -133 -39 -72 c-42 -77 -91 -199 -116 -286
    l-15 -55 -132 -51 -133 -51 -3 -225 -2 -224 132 -51 132 -50 41 -119 c22 -65
    62 -159 88 -208 l47 -88 -59 -132 -59 -131 157 -158 157 -158 134 58 133 58
    103 -53 c57 -29 150 -68 206 -86 l103 -34 52 -133 51 -134 223 0 223 0 52 134
    52 135 103 32 c57 18 149 56 203 84 55 27 104 50 111 50 6 0 67 -25 135 -56
    l124 -55 158 158 159 159 -59 129 -58 130 53 105 c29 58 68 152 86 209 l34
    104 132 50 131 50 -2 225 -3 226 -131 50 -131 51 -29 95 c-15 52 -53 145 -84
    207 l-56 111 59 133 58 133 -158 157 -158 157 -131 -59 -131 -59 -104 53 c-57
    29 -144 66 -194 81 -49 15 -97 31 -105 35 -8 5 -37 67 -65 140 l-50 131 -222
    0 c-202 0 -223 -2 -231 -17z m422 -679 c195 -37 371 -136 513 -287 80 -86 116
    -139 169 -251 246 -520 -25 -1150 -571 -1325 -349 -112 -707 -31 -969 219
    -203 193 -301 426 -299 710 2 258 98 487 282 671 232 232 543 326 875 263z"/>
    <path d="M2538 2950 c-9 -6 -23 -29 -32 -53 -19 -51 -206 -751 -206 -771 0 -7
    9 -25 21 -40 27 -35 86 -37 116 -3 14 15 52 141 122 402 55 209 101 390 101
    403 0 51 -75 89 -122 62z"/>
    <path d="M2124 2831 c-85 -62 -319 -268 -333 -292 -8 -15 -11 -36 -8 -51 7
    -27 327 -304 377 -325 32 -14 67 -6 89 20 15 18 18 67 5 89 -5 9 -67 64 -137
    123 -70 59 -126 111 -125 115 2 4 61 56 131 115 155 129 168 153 114 213 -28
    30 -66 28 -113 -7z"/>
    <path d="M2726 2839 c-25 -20 -34 -57 -20 -92 3 -8 64 -64 135 -123 71 -60
    128 -112 126 -117 -1 -5 -61 -60 -132 -121 -132 -113 -144 -130 -130 -183 7
    -31 64 -57 97 -44 42 17 362 296 372 324 6 17 6 36 0 52 -5 14 -88 92 -188
    175 -193 161 -209 169 -260 129z"/>
    </g>
    </svg>