 <svg width="37" height="36" viewBox="-2 0 41 36" fill="black" xmlns="http://www.w3.org/2000/svg">
    <path d="M35.6717 14.9402C34.8644 14.3801 33.0144 14.17 31.5681 14.4501C31.4001 13.0498 30.6264 11.8246 29.2809 10.7393L28.5074 10.1792L27.9691 10.9844C27.2965 12.0346 26.9601 13.505 27.0609 14.9054C27.0945 15.3954 27.2627 16.2706 27.7673 17.0408C27.2965 17.3209 26.321 17.6709 25.0429 17.6709H0.724204L0.656986 17.951C0.421446 19.3512 0.421446 23.7272 3.1796 27.088C5.26501 29.6435 8.35953 30.9388 12.4294 30.9388C21.2419 30.9388 27.7673 26.7027 30.8282 19.0362C32.0391 19.0712 34.629 19.0362 35.9409 16.4105C35.9745 16.3405 36.0417 16.2004 36.2771 15.6754L36.4117 15.3954L35.6717 14.9402ZM20.1655 5.06812H16.4658V8.56888H20.1655V5.06812ZM20.1655 9.26906H16.4658V12.7698H20.1655V9.26906ZM15.7929 9.26906H12.0932V12.7698H15.7929V9.26906ZM11.4203 9.26906H7.72041V12.7698H11.4203V9.26906ZM7.04767 13.47H3.34778V16.9708H7.04753L7.04767 13.47ZM11.4203 13.47H7.72041V16.9708H11.4203V13.47ZM15.7929 13.47H12.0932V16.9708H15.7929V13.47ZM20.1657 13.47H16.4657V16.9708H20.1657V13.47ZM24.5383 13.47H20.8383V16.9708H24.5383V13.47Z" fill="#2396ED"/>
    </svg>