
    <svg version="1.0" xmlns="http://www.w3.org/2000/svg"
    width="500pt" height="500pt" viewBox="-40 -40 590 590"
    preserveAspectRatio="xMidYMid meet">
    <g transform="translate(0.000000,512.000000) scale(0.100000,-0.100000)"
    fill="#99B080" stroke="#99B080">
    <path d="M1974 5082 c-39 -25 -56 -47 -167 -217 -87 -132 -95 -141 -154 -173
    -86 -46 -136 -49 -319 -18 -182 31 -206 32 -259 6 -78 -38 -93 -73 -126 -300
    -23 -161 -39 -202 -103 -268 -54 -57 -92 -75 -217 -107 -238 -60 -263 -72
    -303 -152 -25 -49 -20 -92 30 -271 40 -140 45 -173 40 -219 -14 -116 -45 -160
    -214 -295 -133 -106 -150 -123 -169 -173 -31 -80 -10 -128 130 -299 120 -145
    137 -183 137 -293 0 -72 -1 -75 -85 -237 -74 -144 -85 -171 -85 -216 0 -60 27
    -119 67 -148 16 -11 89 -49 164 -85 151 -73 184 -96 227 -165 50 -77 56 -119
    43 -307 -14 -198 -8 -232 49 -286 49 -47 92 -56 289 -63 167 -6 207 -17 281
    -76 54 -43 74 -79 140 -256 32 -86 69 -167 82 -181 30 -33 94 -63 137 -63 18
    0 107 29 198 65 190 75 246 82 350 43 50 -18 75 -39 183 -149 69 -70 139 -134
    157 -143 44 -22 125 -20 171 3 20 10 91 75 157 144 104 108 128 127 178 146
    104 38 160 31 350 -44 91 -36 180 -65 198 -65 43 0 107 30 137 63 13 14 50 95
    82 181 66 177 86 213 140 256 74 59 114 70 281 76 197 7 240 16 289 63 57 54
    62 86 49 287 -13 200 -5 245 58 329 34 44 56 59 194 130 86 44 168 88 182 98
    39 26 67 87 67 147 0 45 -11 72 -85 216 -84 162 -85 165 -85 237 0 110 18 148
    137 293 140 170 159 214 131 295 -17 52 -36 71 -171 178 -166 132 -199 178
    -213 294 -5 46 0 79 40 219 51 183 55 222 27 276 -39 76 -57 86 -263 138 -163
    41 -198 56 -254 116 -65 67 -79 107 -107 291 -30 197 -50 242 -120 276 -55 27
    -78 26 -261 -5 -181 -31 -232 -28 -316 17 -69 36 -88 59 -185 214 -110 177
    -138 200 -241 193 -59 -4 -69 -8 -201 -96 -169 -112 -193 -122 -283 -122 -90
    0 -114 10 -284 123 -135 89 -140 92 -205 95 -52 2 -73 -1 -97 -16z m924 -2689
    c-332 -332 -607 -603 -613 -603 -6 0 -157 147 -338 328 l-327 327 110 110 110
    110 220 -220 220 -220 497 497 498 498 112 -112 113 -113 -602 -602z"/>
    </g>
    </svg>